<svg height='300px' width='300px'  fill="#015D8D" xmlns="http://www.w3.org/2000/svg" xmlns:xlink="http://www.w3.org/1999/xlink" viewBox="0 0 24 24" version="1.1" x="0px" y="0px"><title>Rocket</title><desc>Created with Sketch.</desc><g stroke="none" stroke-width="1" fill="none" fill-rule="evenodd"><g><rect x="0" y="0" width="24" height="24"></rect><path d="M7.71853941,16.2769832 C8.21736787,16.7794762 8.03597571,17.7387812 7.31040704,18.4696802 C6.47146827,19.3376228 4.4308064,19.885797 4.34011031,19.9086376 L4,20 L4.09069608,19.6573911 C4.1133701,19.5660287 4.72556867,17.464694 5.51915939,16.6881138 C5.94996579,16.2541426 6.49414229,16.002896 6.97029673,16.002896 C7.265059,15.9800554 7.51447323,16.0942584 7.71853941,16.2769832 Z M20,4.46090608 C20,8.46750173 19.2175379,11.4724485 15.4131535,14.9917554 C15.4671164,16.8867669 14.9005059,18.4027761 13.6863406,19.6209977 L13.3086003,20 L10.9612142,16.5348362 L10.3911526,16.3747787 L10.3911526,16.3747787 C9.0366364,15.994468 7.98150762,14.9305216 7.61248236,13.5728873 L7.45362563,12.9884576 L4,10.6061575 L4.40472175,10.2271552 C5.61888702,9.00893357 7.15682968,8.44043014 9.0455312,8.52164491 C12.5801012,4.73162201 15.5750422,3.97361743 19.5682968,4.00068902 L20,4.00068902 L20,4.46090608 Z M15.0774871,7.00312164 C13.9926681,6.94120293 13.0628233,7.80806485 13.0008336,8.92260161 C12.9698388,10.006179 13.8066991,10.9349597 14.9225129,10.9968784 C16.0383267,11.0587971 16.9371767,10.1919351 16.9991664,9.07739839 C17.0301612,7.99382098 16.1933009,7.06504034 15.0774871,7.00312164 Z" fill="#015D8D"></path></g></g></svg>